<?xml version="1.0" encoding="utf-8"?>
<!-- Generator: Adobe Illustrator 24.0.2, SVG Export Plug-In . SVG Version: 6.00 Build 0)  -->
<svg version="1.1" id="Capa_1" xmlns="http://www.w3.org/2000/svg" xmlns:xlink="http://www.w3.org/1999/xlink" x="0px" y="0px"
	 viewBox="0 0 1200 1200" enable-background="new 0 0 1200 1200" xml:space="preserve">
<g>
	<g>
		<path fill="#FF831F" d="M253.416,575.002l-14.557,5.526c-16.493,6.261-35.002-2.061-41.262-18.552l-8.609-22.677l-44.421,16.864
			c-63.081,23.948-94.92,94.753-70.972,157.835c23.948,63.081,94.753,94.919,157.835,70.971l44.758-16.992
			c-0.727-1.315-1.401-2.673-1.949-4.117l-9.033-23.795c-6.261-16.491,2.061-35.001,18.554-41.263l13.433-5.1l-43.431-114.401
			C253.222,577.876,253.144,576.396,253.416,575.002z"/>
		<path fill="#FF831F" d="M402.84,693.862l8.245,21.713l141.71-53.801l24.798-37.406l-70.491-19.003
			c-2.091-0.564-3.21-2.836-2.382-4.837l33.696-81.45l-49.507,1.524c-2.609,0.08-4.335-2.683-3.119-4.993l20.924-39.718
			l-51.122-9.426c-2.577-0.475-4.162-3.092-3.39-5.595l7.088-22.996l-134.275,50.978l5.61,14.779
			c4.006,10.554,4.295,22.343-0.069,32.754c-4.562,10.882-13.18,19.209-24.145,23.372l-9.794,3.721l41.543,109.423l9.794-3.717
			c4.954-1.882,10.046-2.773,15.058-2.773C380.183,666.412,396.394,676.881,402.84,693.862z"/>
		<path fill="#2F1E4B" d="M320.845,489.242l149.627-56.804l5.889-19.104l-164.429,62.423c3.658,3.292,6.624,7.456,8.488,12.365
			L320.845,489.242z"/>
		<path fill="#A568D3" d="M233.262,565.785l72.04-27.349c8.361-3.174,12.583-12.558,9.408-20.92l-9.034-23.796
			c-3.174-8.362-12.56-12.58-20.921-9.406l-72.04,27.349c-8.362,3.174-12.583,12.559-9.408,20.92l9.034,23.796
			C215.515,564.741,224.9,568.96,233.262,565.785z"/>
		<path fill="#A568D3" d="M361.398,686.198l-72.04,27.349c-8.362,3.174-12.582,12.56-9.408,20.922l9.033,23.795
			c3.174,8.362,12.56,12.58,20.921,9.406l72.04-27.349c8.361-3.174,12.583-12.558,9.408-20.92l-9.033-23.795
			C379.145,687.244,369.759,683.023,361.398,686.198z"/>
		
			<rect x="290.395" y="575.16" transform="matrix(0.9349 -0.3549 0.3549 0.9349 -204.3211 146.4287)" fill="#B2E900" width="13.164" height="109.991"/>
		<path fill="#2F1E4B" d="M614.032,650.019l-27.387-2.47c-2.449-0.221-3.623-3.119-2.017-4.982l17.35-20.13
			c3.019-3.503,1.343-8.956-3.121-10.16l-67.116-18.093c-2.755-0.743-4.229-3.737-3.139-6.373l33.096-79.997
			c1.31-3.167-1.083-6.632-4.51-6.527l-38.604,1.185c-2.914,0.089-4.842-2.997-3.483-5.577l15.09-28.648
			c1.315-2.497-0.168-5.554-2.944-6.066l-49.931-9.21c-2.354-0.434-3.802-2.825-3.097-5.112l10.018-32.499
			c0.762-2.471-1.653-4.737-4.07-3.819l-168.454,63.951c-0.05,0.019-0.105,0.009-0.145-0.026
			c-8.617-7.532-20.983-10.235-32.41-5.896l-72.041,27.349c-11.554,4.386-19.071,14.787-20.4,26.291
			c-0.006,0.053-0.041,0.098-0.091,0.118l-45.102,17.122C70.926,567.252,32.557,645.418,57.755,716.605
			c25.907,73.192,107.069,110.52,179.272,83.109l51.179-19.43c0.04-0.015,0.083-0.012,0.12,0.009
			c8.009,4.551,17.91,5.637,27.174,2.119l72.041-27.349c9.119-3.462,15.719-10.674,18.758-19.212
			c0.014-0.039,0.044-0.07,0.083-0.085l208.552-79.172C618.313,655.312,617.631,650.344,614.032,650.019z M283.231,576.707
			l38.933,102.555c0.029,0.076-0.009,0.161-0.086,0.19l-11.598,4.403c-0.076,0.029-0.161-0.009-0.19-0.086l-38.934-102.555
			c-0.029-0.076,0.009-0.161,0.086-0.19l11.599-4.403C283.117,576.592,283.202,576.631,283.231,576.707z M457.392,444.031
			l-5.279,17.126c-0.725,2.351,0.764,4.808,3.184,5.254l46.181,8.515c2.598,0.479,3.986,3.339,2.755,5.676l-18.517,35.15
			c-1.183,2.245,0.496,4.932,3.032,4.854l43.543-1.341c2.874-0.089,4.882,2.818,3.783,5.474l-31.102,75.178
			c-0.961,2.323,0.338,4.962,2.766,5.617l65.19,17.574c2.161,0.583,2.972,3.222,1.511,4.918l-21.644,33.746l-141.572,53.748
			c-0.076,0.029-0.161-0.009-0.19-0.086l-8.192-21.575c-6.447-16.98-22.657-27.45-39.829-27.45c-5.011,0-10.103,0.891-15.058,2.773
			l-9.656,3.665c-0.076,0.029-0.161-0.009-0.19-0.086l-41.438-109.148c-0.029-0.076,0.009-0.161,0.086-0.19l8.522-3.237
			c9.608-3.65,17.995-10.252,23.033-19.21c6.322-11.241,7.283-24.262,2.786-36.108l-6.028-15.881
			c-0.029-0.076,0.009-0.161,0.086-0.19l128.115-48.639C455.717,439.231,458.164,441.527,457.392,444.031z M212.85,511.612
			l71.769-27.246c8.45-3.208,17.902,1.042,21.11,9.492l8.929,23.52c3.208,8.451-1.042,17.902-9.492,21.11L233.4,565.733
			c-8.451,3.208-17.903-1.042-21.112-9.493l-8.929-23.519C200.15,524.271,204.4,514.82,212.85,511.612z M231.43,784.97
			c-63.955,24.28-135.85-8.783-158.803-73.61C50.299,648.294,84.3,579.043,146.847,555.298l42.004-15.946
			c0.076-0.029,0.161,0.009,0.19,0.086l8.504,22.401c6.299,16.593,24.857,24.938,41.45,18.639l14.423-5.475
			c-0.273,1.394-0.195,2.874,0.346,4.3l43.379,114.263c0.029,0.076-0.009,0.161-0.086,0.19l-13.158,4.995
			c-16.595,6.3-24.94,24.86-18.64,41.454l8.981,23.655c0.549,1.445,1.222,2.802,1.949,4.117L231.43,784.97z M381.809,740.371
			l-71.767,27.245c-8.451,3.208-17.904-1.042-21.112-9.493l-8.927-23.517c-3.208-8.451,1.042-17.904,9.493-21.112l71.765-27.244
			c8.451-3.208,17.903,1.042,21.111,9.493l8.929,23.519C394.509,727.712,390.259,737.163,381.809,740.371z"/>
	</g>
	<g>
		<path fill="#FF831F" d="M974.162,562.33l-16.295-6.035c0.284,1.392,0.219,2.873-0.311,4.303l-42.5,114.751l15.171,5.619
			c16.539,6.126,25.012,24.568,18.886,41.109l-8.84,23.867c-0.537,1.449-1.199,2.812-1.916,4.133l31.125,11.528
			c63.273,23.434,133.818-8.978,157.252-72.252c23.434-63.274-8.978-133.818-72.252-157.252l-30.787-11.402l-8.424,22.744
			C1009.147,559.983,990.706,568.457,974.162,562.33z"/>
		<path fill="#FF831F" d="M906.393,542.168c-22.021-8.156-33.26-32.62-25.103-54.64l5.942-16.04l-167.19-61.925l-19.561,12.11
			l33.831,42.625c1.998,2.518,0.982,6.252-2.017,7.41l-35.518,13.712l35.851,29.396c2.193,1.798,1.8,5.259-0.739,6.521l-83.4,41.426
			l43.337,64.729c1.777,2.654,0.172,6.253-2.99,6.705l-35.141,5.024l6.077,6.349l143.327,53.085l8.053-21.75
			c8.147-21.981,32.643-33.248,54.641-25.107l8.013,2.968l40.602-109.628L906.393,542.168z"/>
		<path fill="#2F1E4B" d="M891.441,471.714l0.416-1.123c1.824-4.924,4.756-9.112,8.387-12.434l-160.842-59.57l-16.998,10.522
			L891.441,471.714z"/>
		<path fill="#A568D3" d="M907.38,520.779l72.26,26.762c8.388,3.106,17.739-1.19,20.845-9.577l8.84-23.867
			c3.106-8.387-1.191-17.737-9.579-20.843l-72.26-26.762c-8.388-3.106-17.734,1.19-20.841,9.577l-8.839,23.867
			C894.7,508.323,898.993,517.673,907.38,520.779z"/>
		<path fill="#A568D3" d="M924.751,695.756l-72.261-26.763c-8.386-3.106-17.738,1.19-20.844,9.577l-8.84,23.867
			c-3.106,8.387,1.191,17.737,9.578,20.843l72.261,26.763c8.387,3.106,17.734-1.19,20.841-9.577l8.84-23.867
			C937.431,708.212,933.138,698.862,924.751,695.756z"/>
		
			<rect x="859.761" y="605.22" transform="matrix(0.3473 -0.9378 0.9378 0.3473 23.3358 1257.1302)" fill="#B2E900" width="109.991" height="13.164"/>
		<path fill="#2F1E4B" d="M1057.53,516.411l-31.682-11.734c-1.395-11.527-9.006-21.908-20.625-26.211l-72.259-26.762
			c-11.541-4.274-23.981-1.409-32.544,6.314l-178.956-66.278c-2.102-0.778-4.445-0.544-6.351,0.636l-35.31,21.86
			c-2.569,1.591-3.176,5.067-1.297,7.434l27.971,35.24c1.904,2.399,0.936,5.956-1.921,7.059l-33.804,13.051
			c-3.45,1.332-4.182,5.89-1.322,8.235l31.112,25.507c2.47,2.025,2.028,5.925-0.833,7.346l-71.339,35.431
			c-2.692,1.337-3.596,4.735-1.924,7.233l36.144,53.991c1.643,2.454,0.159,5.781-2.764,6.198l-34.673,4.953
			c-2.945,0.421-4.181,3.995-2.124,6.145l20.738,21.678l6.005,6.278l0.304,0.318l157.826,58.454
			c3.072,8.613,9.776,15.867,19.004,19.285l72.26,26.763c9.314,3.45,19.23,2.269,27.211-2.375l37.628,13.936
			c72.467,26.839,153.376-11.209,178.635-84.696C1167.163,620.357,1128.27,542.61,1057.53,516.411z M927.488,466.492l72.258,26.762
			c8.401,3.112,12.69,12.445,9.578,20.846l-8.838,23.864c-3.112,8.401-12.444,12.689-20.846,9.578l-72.26-26.762
			c-8.399-3.111-12.686-12.441-9.575-20.84l8.841-23.871C909.757,467.669,919.088,463.382,927.488,466.492z M901.828,665.659
			l-12.06-4.467l38.18-103.152l12.081,4.474L901.828,665.659z M691.693,627.294l-39.563-59.092
			c-1.931-2.885-0.887-6.809,2.221-8.354l77.39-38.44c2.608-1.296,3.011-4.851,0.759-6.697l-30.538-25.039
			c-2.316-1.899-1.723-5.59,1.07-6.668l29.054-11.216c3.102-1.197,4.153-5.059,2.086-7.663l-30.21-38.063
			c-1.854-2.336-1.255-5.767,1.281-7.337l12.782-7.913c1.273-0.788,2.837-0.945,4.241-0.425l164.966,61.101l-5.942,16.04
			c-8.157,22.02,3.082,46.484,25.103,54.64l8.013,2.968l-40.602,109.628l-8.013-2.968c-21.998-8.141-46.494,3.126-54.641,25.107
			l-8.053,21.75l-143.327-53.085l-1.472-1.538c-1.926-2.012-0.769-5.359,1.988-5.754l28.315-4.048
			C691.871,633.761,693.531,630.039,691.693,627.294z M925.485,740.468c-3.111,8.399-12.441,12.686-20.84,9.575l-72.261-26.763
			c-8.401-3.111-12.688-12.443-9.577-20.844l8.839-23.867c3.111-8.4,12.443-12.688,20.844-9.577l72.258,26.762
			c8.401,3.111,12.689,12.444,9.577,20.845L925.485,740.468z M1127.453,687.364c-22.682,64.599-96.051,97.173-160.255,73.394
			l-28.84-10.681c0.717-1.321,1.379-2.684,1.916-4.133l8.841-23.87c6.136-16.567-2.32-34.971-18.887-41.107l-15.171-5.619
			l42.499-114.751c0.53-1.43,0.595-2.911,0.312-4.303l16.295,6.035c16.569,6.137,34.975-2.321,41.112-18.89l8.422-22.743
			l30.788,11.402C1117.096,555.289,1149.489,624.607,1127.453,687.364z"/>
	</g>
</g>
</svg>
